<svg xmlns="http://www.w3.org/2000/svg" width="22.094" height="26.174" viewBox="0 0 22.094 26.174">
  <g id="Group_236" data-name="Group 236" transform="translate(-625.078 390)">
    <path id="Path_129" data-name="Path 129" d="M636.327-390l9.967,4.137a1.123,1.123,0,0,1,.873,1.293c0,1.568.011,3.136,0,4.7a16.981,16.981,0,0,1-5.76,12.919,16.536,16.536,0,0,1-4.825,3.023,1.107,1.107,0,0,1-.915,0,16.99,16.99,0,0,1-10.154-12.014,15.726,15.726,0,0,1-.433-3.824q0-2.467,0-4.934a1.046,1.046,0,0,1,.732-1.105l9.851-4.09.257-.107Zm-9.2,9.12a17.251,17.251,0,0,0,.313,4.175,14.946,14.946,0,0,0,8.522,10.67.439.439,0,0,0,.328,0,15.082,15.082,0,0,0,8.83-13.486c.015-1.466,0-2.931.009-4.4a.286.286,0,0,0-.22-.311q-4.292-1.775-8.581-3.556a.551.551,0,0,0-.381-.006q-4.317,1.78-8.629,3.572a.271.271,0,0,0-.2.3C627.127-383.013,627.123-382.11,627.123-380.88Z" transform="translate(0 0)" fill="#acacac"/>
    <path id="Path_130" data-name="Path 130" d="M675.224-316.338c.075-.07.144-.131.209-.2q2.06-2.059,4.118-4.119a1.027,1.027,0,0,1,1.089-.316,1.012,1.012,0,0,1,.514,1.59,2.4,2.4,0,0,1-.225.244l-4.859,4.86a1.05,1.05,0,0,1-1.684.006q-1.356-1.354-2.709-2.71a.992.992,0,0,1-.286-1.05.977.977,0,0,1,.794-.71,1.029,1.029,0,0,1,.967.341q.964.969,1.933,1.933C675.124-316.424,675.169-316.387,675.224-316.338Z" transform="translate(-40.23 -59.988)" fill="#acacac"/>
  </g>
</svg>
