<svg xmlns="http://www.w3.org/2000/svg" width="24" height="23.391" viewBox="0 0 24 23.391">
  <g id="Group_332" data-name="Group 332" transform="translate(-539.137 859.982)">
    <path id="Path_193" data-name="Path 193" d="M546.438-855.308a2.972,2.972,0,0,1,.573-4.071,2.976,2.976,0,0,1,4.137.537,2.951,2.951,0,0,1,2.214-1.139,2.826,2.826,0,0,1,1.849.566,2.866,2.866,0,0,1,1.156,1.919,2.964,2.964,0,0,1-.544,2.187h.342q2.536,0,5.073,0a1.769,1.769,0,0,1,1.9,1.9c0,.685,0,1.371,0,2.057a1.756,1.756,0,0,1-1.034,1.725c-.176.085-.145.209-.145.339q0,4.772,0,9.543c0,.439,0,.878,0,1.316a1.732,1.732,0,0,1-1.818,1.832q-8.994.006-17.989,0a1.732,1.732,0,0,1-1.828-1.849q0-5.4,0-10.8a.419.419,0,0,0-.261-.437,1.692,1.692,0,0,1-.92-1.572c-.008-.75-.01-1.5,0-2.249a1.754,1.754,0,0,1,1.831-1.8q2.564,0,5.128,0Zm1.762,17.55v-11.677h-6.713v.206q0,5.388,0,10.776c0,.482.219.694.711.695q1.947,0,3.893,0Zm12.592-11.675h-6.713v11.675h5.911c.619,0,.8-.182.8-.8q0-5.278,0-10.556ZM549.4-837.774h3.483v-11.662H549.4ZM548.2-854.119a.839.839,0,0,0-.113-.02q-3.56,0-7.121,0c-.433,0-.644.23-.647.673,0,.694,0,1.388,0,2.082,0,.57.183.752.755.752h6.847c.089,0,.177-.008.28-.013Zm5.872,3.468c.085.007.156.018.227.018q3.492,0,6.984,0c.461,0,.667-.209.669-.672,0-.685,0-1.37,0-2.054,0-.6-.185-.783-.788-.783h-6.792c-.1,0-.194.008-.3.013Zm-1.2.007v-3.476H549.4v3.476Zm-2.332-4.669c0-.629.015-1.231,0-1.832a1.734,1.734,0,0,0-1.755-1.672,1.764,1.764,0,0,0-1.743,1.7,1.746,1.746,0,0,0,1.6,1.8C549.263-855.284,549.885-855.313,550.545-855.313Zm1.209,0c.639,0,1.261.029,1.879-.007a1.746,1.746,0,0,0,1.6-1.745,1.773,1.773,0,0,0-1.58-1.745,1.711,1.711,0,0,0-1.887,1.422A18.383,18.383,0,0,0,551.753-855.313Z" transform="translate(0 0)" fill="#acacac"/>
  </g>
</svg>
