<svg xmlns="http://www.w3.org/2000/svg" width="22.623" height="21.116" viewBox="0 0 22.623 21.116">
  <g id="Group_237" data-name="Group 237" transform="translate(-507.797 311.971)">
    <path id="Path_131" data-name="Path 131" d="M512.322-295.382c-.761,0-1.5,0-2.233,0a2.221,2.221,0,0,1-1.528-.575,2.25,2.25,0,0,1-.764-1.756q0-3.346,0-6.691,0-2.591,0-5.183a2.265,2.265,0,0,1,2.38-2.383h17.859a2.263,2.263,0,0,1,2.382,2.38q0,5.914,0,11.827a2.264,2.264,0,0,1-2.382,2.381q-4.406,0-8.812.006a.692.692,0,0,0-.4.139q-2.528,2.006-5.044,4.026c-.074.059-.146.119-.222.175a.729.729,0,0,1-.816.1.736.736,0,0,1-.422-.706q0-1.708,0-3.416Zm1.508,2.2c.1-.079.157-.122.212-.165,1.349-1.079,2.7-2.154,4.043-3.24a1.285,1.285,0,0,1,.86-.3q4.546.013,9.093.005a.773.773,0,0,0,.872-.867q0-5.925,0-11.85a.768.768,0,0,0-.859-.856H510.171a.772.772,0,0,0-.865.872q0,5.913,0,11.826a.77.77,0,0,0,.864.874c.95,0,1.9,0,2.851,0a.754.754,0,0,1,.808.811c0,.872,0,1.743,0,2.615Z" transform="translate(0)" fill="#acacac"/>
    <path id="Path_132" data-name="Path 132" d="M555.388-256.048q-2.992,0-5.984,0a.752.752,0,0,1-.75-1.023.731.731,0,0,1,.643-.481,1.93,1.93,0,0,1,.212,0h11.757a1.559,1.559,0,0,1,.3.016.757.757,0,0,1,.6.79.749.749,0,0,1-.729.7c-.518.011-1.037,0-1.555,0Z" transform="translate(-36.28 -48.383)" fill="#acacac"/>
    <path id="Path_133" data-name="Path 133" d="M552.407-230.336h2.9a.768.768,0,0,1,.861.759.766.766,0,0,1-.848.748h-5.843a.767.767,0,0,1-.848-.748.765.765,0,0,1,.859-.759Z" transform="translate(-36.304 -72.587)" fill="#acacac"/>
  </g>
</svg>
