<svg xmlns="http://www.w3.org/2000/svg" width="38.493" height="38.442" viewBox="0 0 38.493 38.442">
  <g id="Group_426" data-name="Group 426" transform="translate(-1762.507 -44.839)">
    <path id="Path_307" data-name="Path 307" d="M-365.512,232.607v1.128c-.02.03-.052.059-.057.092a4.564,4.564,0,0,1-1.407,2.63q-1.341,1.316-2.651,2.662a.877.877,0,0,0-.225.547c-.02,1.378.006,2.756-.018,4.133a4.351,4.351,0,0,1-3.98,4.216c-1.448.086-2.9.042-4.357.038a.834.834,0,0,0-.654.277q-1.315,1.342-2.654,2.66a4.41,4.41,0,0,1-6.491-.013c-.888-.883-1.777-1.766-2.653-2.66a.787.787,0,0,0-.622-.263q-1.916.017-3.832,0a4.423,4.423,0,0,1-4.532-4.539c0-1.277-.006-2.555,0-3.832a.744.744,0,0,0-.239-.591c-.9-.886-1.795-1.783-2.687-2.68a4.4,4.4,0,0,1,.007-6.516c.892-.9,1.795-1.783,2.675-2.691a.882.882,0,0,0,.229-.547c.02-1.3.006-2.6.011-3.907a4.431,4.431,0,0,1,4.5-4.493c1.29,0,2.58.01,3.87-.011a.933.933,0,0,0,.581-.236c.918-.888,1.8-1.81,2.723-2.7a4.5,4.5,0,0,1,1.074-.8,12.6,12.6,0,0,1,1.538-.547h1.128a.627.627,0,0,0,.139.054,4.48,4.48,0,0,1,2.672,1.4c.846.872,1.72,1.716,2.57,2.584a.783.783,0,0,0,.621.263c1.265-.013,2.53-.006,3.795-.006a4.428,4.428,0,0,1,4.569,4.542c0,1.29-.007,2.58.01,3.87a.827.827,0,0,0,.212.517c.881.907,1.811,1.769,2.664,2.7a9.26,9.26,0,0,1,1.14,1.654A4.824,4.824,0,0,1-365.512,232.607Zm-18.04.57q0-4.17,0-8.34a1.2,1.2,0,0,0-1.251-1.3,9.536,9.536,0,0,0-6.618,2.5,10.052,10.052,0,0,0-1.993,11.5c1.708,3.474,4.625,5.087,8.425,5.229a1.229,1.229,0,0,0,1.438-1.4Q-383.552,237.272-383.553,233.178Z" transform="translate(2166.512 -169.127)" fill="#fff"/>
    <path id="Path_308" data-name="Path 308" d="M-335.5,281.091q0,4.095,0,8.19a1.229,1.229,0,0,1-1.438,1.4c-3.8-.142-6.717-1.755-8.425-5.229a10.052,10.052,0,0,1,1.993-11.5,9.536,9.536,0,0,1,6.618-2.5,1.2,1.2,0,0,1,1.251,1.3Q-335.5,276.921-335.5,281.091Z" transform="translate(2118.462 -217.041)"/>
  </g>
</svg>
