<svg xmlns="http://www.w3.org/2000/svg" width="24.003" height="24.007" viewBox="0 0 24.003 24.007">
  <g id="Group_331" data-name="Group 331" transform="translate(-576.022 963)">
    <path id="Path_189" data-name="Path 189" d="M875.422-950.483a.29.29,0,0,0-.033.061A1.756,1.756,0,0,1,873.537-949q-3.41,0-6.82,0c-.156,0-.312,0-.469,0a1.763,1.763,0,0,1-1.831-1.833c-.005-.758,0-1.516,0-2.273v-7.781A1.833,1.833,0,0,1,865.905-963h8.063a1.8,1.8,0,0,1,1.048.648,6.489,6.489,0,0,1,.405.852Zm-1.5-5.518q0-2.542,0-5.084c0-.356-.056-.415-.4-.415h-7.216c-.315,0-.388.07-.388.383q0,5.119,0,10.238c0,.308.077.384.392.384h7.216c.328,0,.4-.07.4-.4Q873.922-953.447,873.922-956Z" transform="translate(-275.397 0)" fill="#acacac"/>
    <path id="Path_190" data-name="Path 190" d="M585.539-963a5.25,5.25,0,0,1,.884.449,1.61,1.61,0,0,1,.6,1.341c0,1.477.011,2.953,0,4.43A1.736,1.736,0,0,1,585.24-955q-3.715.016-7.43,0a1.743,1.743,0,0,1-1.787-1.824q0-2.156,0-4.313a1.746,1.746,0,0,1,1.4-1.827.217.217,0,0,0,.056-.038Zm-4.017,1.5h-3.607c-.33,0-.392.063-.392.4q0,2.108,0,4.216c0,.315.071.389.382.389h7.238c.309,0,.384-.077.384-.391q0-2.108,0-4.216c0-.328-.07-.4-.4-.4Z" transform="translate(0 0)" fill="#acacac"/>
    <path id="Path_191" data-name="Path 191" d="M875.239-601.539c-.043.132-.075.269-.129.4a1.652,1.652,0,0,1-1.575,1.1c-2.531.018-5.062.014-7.593,0a1.712,1.712,0,0,1-1.7-1.715c-.024-1.523-.026-3.047,0-4.57a1.727,1.727,0,0,1,1.822-1.714c1.765-.005,3.531,0,5.3,0,.664,0,1.328,0,1.992,0a1.756,1.756,0,0,1,1.851,1.427.29.29,0,0,0,.033.061Zm-5.5,0h3.607c.329,0,.392-.064.392-.4q0-2.108,0-4.216c0-.315-.071-.388-.383-.388h-7.238c-.309,0-.383.077-.383.391q0,2.108,0,4.216c0,.328.07.4.4.4Z" transform="translate(-275.214 -338.959)" fill="#acacac"/>
    <path id="Path_192" data-name="Path 192" d="M576.035-734.177q0-2.565,0-5.131a1.76,1.76,0,0,1,1.878-1.875q3.62,0,7.24,0a1.766,1.766,0,0,1,1.887,1.893q0,5.108,0,10.215a1.766,1.766,0,0,1-1.9,1.9h-7.193a1.762,1.762,0,0,1-1.907-1.914Q576.035-731.635,576.035-734.177Zm1.5-.009q0,2.542,0,5.084c0,.369.053.423.415.423h7.169c.359,0,.42-.061.42-.422q0-5.084,0-10.168c0-.345-.069-.415-.408-.415H577.94c-.341,0-.4.066-.4.414Q577.535-736.728,577.535-734.186Z" transform="translate(-0.013 -211.819)" fill="#acacac"/>
  </g>
</svg>
