<svg xmlns="http://www.w3.org/2000/svg" width="16.995" height="17.843" viewBox="0 0 16.995 17.843">
  <path id="Path_200" data-name="Path 200" d="M-750.438,321.51a.666.666,0,0,1,.358-.485.21.21,0,0,1,.11,0c.365.069.729.144,1.094.211.213.039.428.064.641.1s.424.082.636.123c.167.032.333.066.5.095.354.06.709.111,1.061.175s.685.138,1.027.2c.153.03.308.055.462.081.349.059.7.113,1.047.177s.693.139,1.041.205c.208.039.417.069.626.1.163.028.326.056.488.086.407.076.813.15,1.219.23.334.065.665.14,1,.2s.671.117,1,.18c.4.075.8.142,1.19.241a.912.912,0,0,1,.368.234c.689.647,1.369,1.3,2.054,1.953.267.254.551.493.8.761a1.707,1.707,0,0,1,.258.459.2.2,0,0,1-.034.165c-.225.313-.447.629-.689.929-.7.863-1.405,1.718-2.108,2.577-.764.934-1.524,1.87-2.291,2.8-.664.807-1.336,1.607-2,2.412q-.917,1.106-1.831,2.214c-.238.286-.479.57-.718.855-.071.084-.145.085-.2,0a3.3,3.3,0,0,1-.258-.463c-.127-.3-.231-.618-.352-.925-.141-.359-.288-.715-.434-1.071s-.291-.7-.436-1.054-.279-.688-.42-1.031-.277-.669-.417-1-.29-.694-.437-1.04-.3-.69-.44-1.037c-.166-.4-.326-.8-.491-1.195-.142-.343-.287-.684-.43-1.026s-.28-.667-.42-1q-.22-.526-.438-1.054c-.167-.407-.332-.815-.5-1.221s-.346-.828-.515-1.244c-.14-.344-.272-.691-.409-1.036-.122-.306-.248-.611-.366-.918-.092-.24-.174-.483-.261-.724C-750.376,321.668-750.408,321.589-750.438,321.51ZM-748.6,323l-.038.028,5.292,12.915.043-.007a.755.755,0,0,0,.033-.113c.03-.233.056-.466.086-.7.041-.32.089-.638.126-.959s.064-.651.1-.976c.024-.234.05-.467.079-.7.045-.356.1-.712.138-1.068.039-.32.069-.641.1-.961q.066-.583.135-1.166c.035-.3.069-.595.114-.89a.238.238,0,0,0-.087-.243q-1.25-1.057-2.5-2.116c-.616-.52-1.234-1.037-1.849-1.558-.558-.474-1.113-.951-1.671-1.426A.663.663,0,0,0-748.6,323Zm13.282,4.615c-.1.021-.183.044-.268.056-.242.035-.484.064-.725.1-.182.027-.363.06-.544.092-.217.039-.434.083-.652.118-.241.038-.484.064-.725.1-.186.028-.372.062-.557.1-.208.038-.415.083-.624.116-.409.063-.82.119-1.229.18-.168.025-.337.05-.5.084-.227.047-.254.081-.275.309-.013.142-.015.286-.032.428-.067.539-.144,1.077-.208,1.616s-.116,1.072-.174,1.607c-.026.234-.05.467-.08.7-.043.338-.093.675-.136,1.013-.048.375-.094.749-.135,1.125-.021.191-.03.383-.045.578C-742.106,335.909-735.345,327.778-735.316,327.62Zm-12.46-5.125-.014.039c.072.063.142.127.215.188l1.156.943c.672.546,1.345,1.09,2.015,1.639q1.186.972,2.365,1.951a.178.178,0,0,0,.275,0c.275-.245.556-.484.838-.721q1.137-.955,2.278-1.907c.109-.092.219-.182.324-.278a.188.188,0,0,0,.05-.1c0-.012-.044-.043-.071-.048q-.44-.083-.882-.159c-.344-.06-.689-.113-1.033-.175-.556-.1-1.112-.2-1.668-.3l-.487-.092c-.356-.069-.711-.143-1.068-.209-.339-.063-.68-.115-1.019-.178s-.675-.141-1.014-.2-.7-.117-1.047-.177c-.163-.028-.325-.061-.487-.093-.2-.039-.4-.083-.6-.12A.579.579,0,0,0-747.777,322.495Zm7.265,4.987.014.048c.074-.008.149-.013.222-.025.05-.008.1-.031.146-.04.349-.059.7-.114,1.047-.175.416-.073.831-.152,1.247-.228.167-.031.335-.059.5-.091.347-.067.694-.139,1.042-.2s.7-.116,1.047-.178a.152.152,0,0,0,.106-.069c.009-.025-.029-.078-.059-.105-.354-.329-.711-.656-1.067-.984-.241-.222-.484-.441-.72-.668a.16.16,0,0,0-.263,0c-.144.135-.3.256-.455.382q-1.256,1.039-2.513,2.077C-740.316,327.3-740.413,327.394-740.512,327.482Z" transform="translate(750.438 -321.016)" fill="#f84242"/>
</svg>
