<svg xmlns="http://www.w3.org/2000/svg" width="20.315" height="23.319" viewBox="0 0 20.315 23.319">
  <g id="Group_242" data-name="Group 242" transform="translate(-593.835 429.572)">
    <path id="Path_147" data-name="Path 147" d="M597.07-406.253c-.175-.042-.351-.08-.525-.127a3.627,3.627,0,0,1-2.7-3.5q-.009-8.036,0-16.073a3.626,3.626,0,0,1,3.61-3.615c3.431-.009,6.861,0,10.292,0a1.081,1.081,0,0,1,1.133,1.083,1.083,1.083,0,0,1-1.138,1.1q-5.043,0-10.087,0a1.475,1.475,0,0,0-1.627,1.618q0,7.854,0,15.709a1.477,1.477,0,0,0,1.628,1.618q5.044,0,10.087,0a1.094,1.094,0,0,1,1.125.9,1.092,1.092,0,0,1-.784,1.246.544.544,0,0,0-.078.041Z" transform="translate(0 0)" fill="#bbb"/>
    <path id="Path_148" data-name="Path 148" d="M678.284-363.8h-.241q-4.121,0-8.242,0a1.1,1.1,0,0,1-1.141-.934,1.092,1.092,0,0,1,1.074-1.249c.774-.009,1.548,0,2.322,0h6.276c-.087-.095-.139-.155-.2-.211q-1.537-1.538-3.076-3.074a1.091,1.091,0,0,1-.332-1.1,1.088,1.088,0,0,1,1.794-.529c.056.051.109.106.163.159l4.958,4.958a1.116,1.116,0,0,1,0,1.779q-2.5,2.5-5.006,5.007a1.1,1.1,0,0,1-1.133.346,1.085,1.085,0,0,1-.546-1.75c.058-.07.124-.133.189-.2q1.489-1.489,2.979-2.977c.059-.059.128-.107.192-.161Z" transform="translate(-67.934 -53.024)" fill="#bbb"/>
  </g>
</svg>
