<svg xmlns="http://www.w3.org/2000/svg" width="29.432" height="31.067" viewBox="0 0 29.432 31.067">
  <g id="Group_231" data-name="Group 231" transform="translate(-458.971 344.025)">
    <path id="Path_115" data-name="Path 115" d="M469.73-288.492l.864,1.278c1,1.47,2,2.932,2.985,4.41a2.43,2.43,0,0,1-1.234,3.728,2.516,2.516,0,0,1-2.915-1.076q-2.056-3.018-4.1-6.042c-.067-.1-.138-.2-.215-.305a3.933,3.933,0,0,1-1.991.637,4.034,4.034,0,0,1-4.148-4.118,3.762,3.762,0,0,1,1.711-3.131c.8-.556,1.617-1.086,2.413-1.646a1.435,1.435,0,0,0,.45-.5q2.335-4.7,4.647-9.4a2.19,2.19,0,0,1,1.823-1.247,4.764,4.764,0,0,1,2.85.7,13.807,13.807,0,0,1,4.078,3.517,18.365,18.365,0,0,1,3.7,6.921,7.191,7.191,0,0,1,.211,3.341,2.96,2.96,0,0,1-.769,1.527,2.287,2.287,0,0,1-1.513.689c-2.863.219-5.725.453-8.587.682C469.917-288.532,469.85-288.514,469.73-288.492Zm-.875-13.867a15.733,15.733,0,0,0,.3,1.645,17.468,17.468,0,0,0,5.875,8.89,6.475,6.475,0,0,0,2.7,1.4,1.42,1.42,0,0,0,1.36-.418,1.961,1.961,0,0,0,.549-1.1,5.415,5.415,0,0,0-.159-2.56,17.507,17.507,0,0,0-6.148-8.985,6.054,6.054,0,0,0-2.349-1.176,1.536,1.536,0,0,0-2.047,1.359C468.893-303.033,468.888-302.757,468.854-302.359Zm6.384,12.207a18.948,18.948,0,0,1-7.456-10.978c-.028.045-.052.078-.069.114q-1.527,3.112-3.058,6.222a.354.354,0,0,0,.051.411c1.023,1.5,2.047,3,3.054,4.511a.55.55,0,0,0,.594.276c1.222-.112,2.447-.2,3.671-.3Zm-11.527-3.562c-.8.547-1.6,1.069-2.373,1.62a2.661,2.661,0,0,0-.635,3.812,2.663,2.663,0,0,0,3.765.777c.721-.472,1.428-.966,2.14-1.452.073-.05.143-.106.222-.165Zm2.4,6.549,1.028,1.514q1.657,2.441,3.314,4.883a1.274,1.274,0,0,0,1.385.6,1.27,1.27,0,0,0,.707-2.027q-2.01-2.974-4.028-5.943a.487.487,0,0,0-.718-.166C467.241-287.942,466.693-287.559,466.112-287.164Z" transform="translate(0 -34.013)" fill="#acacac"/>
    <path id="Path_116" data-name="Path 116" d="M668.78-297.844a.624.624,0,0,1-.679-.4.584.584,0,0,1,.266-.709c.589-.394,1.184-.779,1.777-1.168q1.13-.742,2.26-1.484a.628.628,0,0,1,.938.095c.216.312.115.669-.271.923q-1.967,1.294-3.938,2.58A2.188,2.188,0,0,1,668.78-297.844Z" transform="translate(-186.731 -37.738)" fill="#acacac"/>
    <path id="Path_117" data-name="Path 117" d="M678.065-239.046l2.524.453c.748.134,1.5.271,2.245.4a.621.621,0,0,1,.591.673.632.632,0,0,1-.793.515q-2.2-.392-4.4-.793c-.139-.025-.281-.045-.417-.083a.594.594,0,0,1-.456-.66A.619.619,0,0,1,678.065-239.046Z" transform="translate(-195.027 -93.751)" fill="#acacac"/>
    <path id="Path_118" data-name="Path 118" d="M641.649-343.387q-.186,1.813-.372,3.626c-.03.292-.057.585-.094.876a.589.589,0,0,1-.666.554A.575.575,0,0,1,640-339q.22-2.252.458-4.5a.578.578,0,0,1,.663-.522A.591.591,0,0,1,641.649-343.387Z" transform="translate(-161.667 0)" fill="#acacac"/>
    <path id="Path_119" data-name="Path 119" d="M574.844-251.022a3.262,3.262,0,0,1,3.12,2.194,3.252,3.252,0,0,1-1.064,3.609,1.259,1.259,0,0,1-.362.216.584.584,0,0,1-.7-.294.582.582,0,0,1,.179-.759,2.075,2.075,0,0,0,.882-1.433,1.956,1.956,0,0,0-.851-1.955,1.985,1.985,0,0,0-2.13-.146c-.091.044-.174.105-.264.15a.6.6,0,0,1-.8-.219.6.6,0,0,1,.182-.807A3.253,3.253,0,0,1,574.844-251.022Z" transform="translate(-101.634 -83.057)" fill="#acacac"/>
  </g>
</svg>
