<svg xmlns="http://www.w3.org/2000/svg" width="18.794" height="25.835" viewBox="0 0 18.794 25.835">
  <path id="Path_194" data-name="Path 194" d="M427.073-813.864c-.627-.324-.749-.637-.51-1.309q1.747-4.9,3.493-9.8c.123-.346.281-.644.691-.717a.786.786,0,0,1,.927.973c-.2.675-.456,1.334-.692,2q-.755,2.124-1.516,4.246a.384.384,0,0,0-.025.215l8.85-9.6h-.324q-2.8,0-5.6,0a.819.819,0,0,1-.924-.7,1.321,1.321,0,0,1,.091-.562q1.053-2.98,2.121-5.955a.457.457,0,0,0,.035-.238l-8.835,9.581c.123.007.2.016.281.016.732,0,1.464-.009,2.2,0a.812.812,0,0,1,.791,1.126.765.765,0,0,1-.628.484,2.052,2.052,0,0,1-.277.018q-2.031,0-4.062,0a1.406,1.406,0,0,1-.447-.056.8.8,0,0,1-.388-1.219,1.739,1.739,0,0,1,.159-.2q6.353-6.892,12.708-13.783a.818.818,0,0,1,1.429.123.961.961,0,0,1-.025.758q-1.063,2.977-2.124,5.954c-.352.988-.7,1.976-1.071,3.008.122.006.217.014.312.014,2.086,0,4.172,0,6.258.008a1.348,1.348,0,0,1,.664.169.76.76,0,0,1,.2,1.068,1.8,1.8,0,0,1-.189.235q-6.353,6.893-12.711,13.78a2.95,2.95,0,0,1-.5.358Z" transform="translate(-422.171 839.699)" fill="#acacac"/>
</svg>
