<svg xmlns="http://www.w3.org/2000/svg" width="25.077" height="25.066" viewBox="0 0 25.077 25.066">
  <g id="Group_233" data-name="Group 233" transform="translate(-104.545 -591.673)">
    <path id="Path_58" data-name="Path 58" d="M129.622,605.081v4.506c-.054.142-.1.289-.165.426a1.74,1.74,0,0,1-1.3.977c0,.1,0,.188,0,.276,0,.945.01,1.889,0,2.834a2.679,2.679,0,0,1-1.9,2.511c-.162.049-.328.085-.492.127H106.947a.611.611,0,0,0-.112-.042,2.667,2.667,0,0,1-2.283-2.63q-.014-6.7,0-13.4a2.665,2.665,0,0,1,2.225-2.605c.091-.016.182-.036.288-.058-.108-.293-.207-.56-.3-.828a1.717,1.717,0,0,1,1.078-2.326q4.19-1.528,8.383-3.049a1.711,1.711,0,0,1,2.33,1.1c.161.444.331.886.477,1.335a.313.313,0,0,0,.357.26q2.228-.016,4.456,0a1.676,1.676,0,0,1,1.681,1.42,4.135,4.135,0,0,1,.031.683c0,.471,0,.943,0,1.411a2.757,2.757,0,0,1,2.6,2.93c-.036.831,0,1.665-.01,2.5,0,.161.026.242.208.281a1.379,1.379,0,0,1,.864.561A6.387,6.387,0,0,1,129.622,605.081ZM126.683,611c-.942,0-1.847.01-2.752,0a3.672,3.672,0,0,1,.054-7.343c.808-.007,1.616,0,2.424,0h.274c0-.955,0-1.877,0-2.8a1.234,1.234,0,0,0-1.362-1.365H107.373a1.233,1.233,0,0,0-1.357,1.37q0,6.5,0,13a1.252,1.252,0,0,0,1.408,1.4h17.85c.057,0,.114,0,.171,0a1.226,1.226,0,0,0,1.237-1.249c.006-.857,0-1.714,0-2.571Zm-9.128-16.52c-.134-.377-.259-.737-.39-1.095-.094-.256-.186-.3-.45-.2q-4.18,1.52-8.358,3.043c-.268.1-.3.187-.2.469.133.368.282.73.4,1.1.058.186.151.226.332.225q3.182-.009,6.365,0h.27c0-.624,0-1.211,0-1.8a1.707,1.707,0,0,1,1.43-1.7A5.556,5.556,0,0,1,117.555,594.483Zm8.281,15.011v.04c.661,0,1.322,0,1.983,0,.22,0,.335-.089.334-.319q0-1.885,0-3.77c0-.228-.1-.322-.329-.321-1.305,0-2.611-.009-3.916.008a2.193,2.193,0,0,0-2.118,2.046,2.148,2.148,0,0,0,1.823,2.3A20.6,20.6,0,0,0,125.836,609.495Zm-1.748-11.483c0-.559,0-1.1,0-1.648,0-.342-.055-.4-.4-.4h-6.31c-.049,0-.112-.018-.144.005-.089.065-.233.146-.236.224-.02.6-.011,1.2-.011,1.815Z" transform="translate(0 0)" fill="#acacac"/>
    <path id="Path_59" data-name="Path 59" d="M327.126,768.633a.735.735,0,0,1,.745.714.734.734,0,1,1-1.467.023A.735.735,0,0,1,327.126,768.633Z" transform="translate(-203.148 -162.036)" fill="#acacac"/>
  </g>
</svg>
